<?xml version="1.0" encoding="UTF-8" standalone="no"?>
<!-- Created with Inkscape (http://www.inkscape.org/) -->
<svg xmlns:inkscape="http://www.inkscape.org/namespaces/inkscape" xmlns:rdf="http://www.w3.org/1999/02/22-rdf-syntax-ns#" xmlns="http://www.w3.org/2000/svg" xmlns:cc="http://creativecommons.org/ns#" xmlns:dc="http://purl.org/dc/elements/1.1/" xmlns:sodipodi="http://sodipodi.sourceforge.net/DTD/sodipodi-0.dtd" xmlns:svg="http://www.w3.org/2000/svg" xmlns:ns1="http://sozi.baierouge.fr" xmlns:xlink="http://www.w3.org/1999/xlink" id="svg2" sodipodi:docname="rss.svg" viewBox="0 0 200 200" version="1.1" inkscape:version="0.48.4 r9939">
  <sodipodi:namedview id="base" bordercolor="#666666" inkscape:pageshadow="2" pagecolor="#ffffff" inkscape:zoom="2" showgrid="false" borderopacity="1.0" inkscape:current-layer="layer1" inkscape:cx="171.64399" inkscape:cy="83.300684" inkscape:pageopacity="0.0" inkscape:document-units="px">
    <inkscape:grid id="grid3809" enabled="true" visible="true" snapvisiblegridlinesonly="true" type="xygrid" empspacing="5"/>
  </sodipodi:namedview>
  <g id="layer1" inkscape:label="Layer 1" inkscape:groupmode="layer" transform="translate(0 -852.36)">
    <rect id="rect2985" style="fill-opacity:.24215;fill:#e7eab7" rx="8.546" ry="7.5198" height="180" width="180" y="862.36" x="10"/>
    <g id="g3841">
      <path id="path3007" sodipodi:rx="24.752476" sodipodi:ry="22.970297" style="fill-opacity:.89686;fill:#b3b3b3" sodipodi:type="arc" d="m159.21 52.277c0 12.686-11.082 22.97-24.752 22.97s-24.752-10.284-24.752-22.97 11.082-22.97 24.752-22.97 24.752 10.284 24.752 22.97z" transform="matrix(.64640 0 0 .69655 -38.912 967.95)" sodipodi:cy="52.277229" sodipodi:cx="134.45544"/>
      <path id="path3816" d="m118.91 1020.4c0.10179-0.4528 0.25045-0.8879 0.34375-1.3438 0.48434-2.3669 0.84549-4.7741 1.0938-7.2187 0.24826-2.4446 0.375-4.9274 0.375-7.4375s-0.12674-4.9929-0.375-7.4375-0.60941-4.8518-1.0938-7.2188c-0.48434-2.3669-1.1043-4.6917-1.8125-6.9688-0.70823-2.277-1.5176-4.5125-2.4375-6.6875-0.91994-2.175-1.943-4.283-3.0625-6.3438s-2.3182-4.0657-3.625-6-2.7055-3.798-4.1875-5.5938c-1.482-1.7957-3.0738-3.5113-4.7188-5.1562-1.6449-1.6449-3.3605-3.2368-5.1562-4.7188s-3.6594-2.8807-5.5938-4.1875c-1.9343-1.3068-3.9392-2.5055-6-3.625s-4.1688-2.1426-6.3438-3.0625c-2.175-0.91994-4.4105-1.7293-6.6875-2.4375-2.277-0.70823-4.6018-1.3282-6.9688-1.8125-2.3669-0.48434-4.7742-0.84549-7.2188-1.0938-2.4446-0.24826-4.9274-0.375-7.4375-0.375s-4.9929 0.12674-7.4375 0.375-4.8518 0.60941-7.2188 1.0938c-0.45592 0.0933-0.89098 0.24197-1.3438 0.34375v25.5c1.704-0.55159 3.3449-1.2295 5.125-1.5938 1.5949-0.32636 3.2278-0.58271 4.875-0.75s3.3086-0.25 5-0.25 3.3528 0.0827 5 0.25c1.6472 0.16729 3.2801 0.42364 4.875 0.75 3.1898 0.65272 6.2564 1.604 9.1875 2.8438s5.7369 2.7701 8.3438 4.5312c2.6068 1.7611 5.0332 3.7519 7.25 5.9688 2.2168 2.2168 4.2076 4.6432 5.9688 7.25 1.7611 2.6068 3.2915 5.4126 4.5312 8.3438 1.2398 2.9311 2.191 5.9977 2.8438 9.1875 0.32636 1.5949 0.58271 3.2278 0.75 4.875s0.25 3.3086 0.25 5c0 1.6913-0.08271 3.3527-0.25 5-0.16729 1.6472-0.42364 3.2801-0.75 4.875-0.36425 1.78-1.0422 3.4209-1.5938 5.125h25.5z" style="fill-opacity:.89686;fill:#b3b3b3" inkscape:connector-curvature="0"/>
      <path id="path3807" d="m48 874.36c-4.4873 0-8.911 0.21243-13.281 0.65625-0.91983 0.0934-1.8047 0.29376-2.7188 0.40625v29.562c1.8935-0.30275 3.7604-0.67929 5.6875-0.875 3.388-0.34407 6.8338-0.53125 10.312-0.53125 3.4787 0 6.9245 0.18718 10.312 0.53125 3.388 0.34407 6.7197 0.86 10 1.5312 3.2803 0.67125 6.5005 1.4872 9.6562 2.4688 3.1558 0.98154 6.2357 2.1 9.25 3.375s5.9565 2.6985 8.8125 4.25 5.6317 3.2514 8.3125 5.0625 5.2613 3.7274 7.75 5.7812c2.4887 2.0539 4.8765 4.2515 7.1562 6.5312s4.4774 4.6675 6.5312 7.1562c2.0539 2.4887 3.9701 5.0692 5.7812 7.75s3.511 5.4565 5.0625 8.3125 2.975 5.7982 4.25 8.8125 2.3935 6.0942 3.375 9.25c0.98154 3.1558 1.7975 6.3759 2.4688 9.6562 0.67125 3.2803 1.1872 6.612 1.5312 10 0.34407 3.388 0.53125 6.8337 0.53125 10.313 0 3.4787-0.18718 6.9245-0.53125 10.312-0.19571 1.9271-0.57225 3.794-0.875 5.6875h29.562c0.11249-0.9141 0.31284-1.7989 0.40625-2.7188 0.44382-4.3702 0.65625-8.7939 0.65625-13.281 0-4.4873-0.21243-8.911-0.65625-13.281-0.44382-4.3702-1.1341-8.6749-2-12.906-0.86586-4.2313-1.9214-8.3981-3.1875-12.469-1.2661-4.0707-2.7304-8.0492-4.375-11.938-1.6446-3.8882-3.4675-7.691-5.4688-11.375s-4.1638-7.2607-6.5-10.719c-2.3362-3.458-4.8507-6.7898-7.5-10s-5.4343-6.3093-8.375-9.25-6.0398-5.7257-9.25-8.375-6.542-5.1638-10-7.5-7.0347-4.4987-10.719-6.5c-3.684-2.0013-7.4868-3.8242-11.375-5.4688s-7.8668-3.1089-11.938-4.375c-4.0707-1.2661-8.2374-2.3216-12.469-3.1875-4.2313-0.86586-8.536-1.5562-12.906-2-4.349-0.48-8.773-0.69-13.26-0.69z" style="fill-opacity:.89686;fill:#b3b3b3" inkscape:connector-curvature="0"/>
    </g>
  </g>
  <metadata>
    <rdf:RDF>
      <cc:Work>
        <dc:format>image/svg+xml</dc:format>
        <dc:type rdf:resource="http://purl.org/dc/dcmitype/StillImage"/>
        <cc:license rdf:resource="http://creativecommons.org/licenses/publicdomain/"/>
        <dc:publisher>
          <cc:Agent rdf:about="http://openclipart.org/">
            <dc:title>Openclipart</dc:title>
          </cc:Agent>
        </dc:publisher>
        <dc:title>Simple RSS</dc:title>
        <dc:date>2013-04-02T22:51:49</dc:date>
        <dc:description>A minimalistic RSS feed icon for my website. </dc:description>
        <dc:source>https://openclipart.org/detail/176721/simple-rss-by-dimaursu-176721</dc:source>
        <dc:creator>
          <cc:Agent>
            <dc:title>dimaursu</dc:title>
          </cc:Agent>
        </dc:creator>
        <dc:subject>
          <rdf:Bag>
            <rdf:li>Feed</rdf:li>
            <rdf:li>RSS</rdf:li>
            <rdf:li>website</rdf:li>
          </rdf:Bag>
        </dc:subject>
      </cc:Work>
      <cc:License rdf:about="http://creativecommons.org/licenses/publicdomain/">
        <cc:permits rdf:resource="http://creativecommons.org/ns#Reproduction"/>
        <cc:permits rdf:resource="http://creativecommons.org/ns#Distribution"/>
        <cc:permits rdf:resource="http://creativecommons.org/ns#DerivativeWorks"/>
      </cc:License>
    </rdf:RDF>
  </metadata>
</svg>